# xmcd
#
# Track frame offsets:
#	150
#	21392
#	37232
#	52711
#	74794
#	97953
#	116589
#	135014
#	151166
#	171821
#	190735
#	209862
#	240122
#
# Disc length: 4239 seconds
#
# Revision: 0
# Processed by: cddbd v1.5.2PL0 Copyright (c) Steve Scherf et al.
# Submitted via: dBpowerAMP V4.0
#
DISCID=ab108d0d
DTITLE=Brand New Heavies  - Get Used To It
DYEAR=1900
DGENRE=
TTITLE0=We've got
TTITLE1=I don't know why (I love you)
TTITLE2=Get used to it
TTITLE3=Sex good
TTITLE4=Let's do it again
TTITLE5=We won't stop
TTITLE6=Right on
TTITLE7=Music
TTITLE8=I just realized
TTITLE9=All fired up
TTITLE10=Love is
TTITLE11=I've been touched
TTITLE12=DATA
EXTD=
EXTT0=
EXTT1=
EXTT2=
EXTT3=
EXTT4=
EXTT5=
EXTT6=
EXTT7=
EXTT8=
EXTT9=
EXTT10=
EXTT11=
EXTT12=
PLAYORDER=
